<?xml version="1.0" encoding="utf-8"?>
<!-- Generator: Adobe Illustrator 27.5.0, SVG Export Plug-In . SVG Version: 6.00 Build 0)  -->
<svg version="1.1" xmlns="http://www.w3.org/2000/svg" xmlns:xlink="http://www.w3.org/1999/xlink" x="0px" y="0px"
	 viewBox="0 0 650 500" style="enable-background:new 0 0 650 500;" xml:space="preserve">
<g id="BACKGROUND">
</g>
<g id="OBJECTS">
	<rect style="fill:#FFFFFF;" width="650" height="500"/>
	<ellipse style="fill:#E0E0E0;" cx="325" cy="418.025" rx="276.803" ry="30.367"/>
	<g>
		<g>
			<path style="fill:#264360;" d="M525.184,190.903v180.811v38.523v11.423c14.66,4.332,30.259,4.332,44.919,0v-11.423v-38.523
				V190.903H525.184z"/>
			<g>
				<defs>
					<path id="SVGID_60_" d="M570.102,198.029L570.102,198.029c-14.66,4.332-30.259,4.332-44.919,0l0,0v-28.34h44.919V198.029z"/>
				</defs>
				<clipPath id="SVGID_00000005245765701647277440000017145270302263182763_">
					<use xlink:href="#SVGID_60_"  style="overflow:visible;"/>
				</clipPath>
				<path style="clip-path:url(#SVGID_00000005245765701647277440000017145270302263182763_);fill:#EBEBEB;" d="M570.102,198.029
					L570.102,198.029c-14.66,4.332-30.259,4.332-44.919,0l0,0v-28.34h44.919V198.029z"/>
				<g style="clip-path:url(#SVGID_00000005245765701647277440000017145270302263182763_);">
					
						<line style="fill:none;stroke:#D6D6D6;stroke-width:0.5;stroke-miterlimit:10;" x1="530.175" y1="167.725" x2="530.175" y2="204.982"/>
					
						<line style="fill:none;stroke:#D6D6D6;stroke-width:0.5;stroke-miterlimit:10;" x1="534.057" y1="167.777" x2="534.057" y2="205.034"/>
					
						<line style="fill:none;stroke:#D6D6D6;stroke-width:0.5;stroke-miterlimit:10;" x1="537.938" y1="167.828" x2="537.938" y2="205.085"/>
					
						<line style="fill:none;stroke:#D6D6D6;stroke-width:0.5;stroke-miterlimit:10;" x1="541.82" y1="167.88" x2="541.82" y2="205.137"/>
					
						<line style="fill:none;stroke:#D6D6D6;stroke-width:0.5;stroke-miterlimit:10;" x1="545.701" y1="167.931" x2="545.701" y2="205.188"/>
					
						<line style="fill:none;stroke:#D6D6D6;stroke-width:0.5;stroke-miterlimit:10;" x1="549.583" y1="167.983" x2="549.583" y2="205.239"/>
					
						<line style="fill:none;stroke:#D6D6D6;stroke-width:0.5;stroke-miterlimit:10;" x1="553.464" y1="168.034" x2="553.464" y2="205.291"/>
					
						<line style="fill:none;stroke:#D6D6D6;stroke-width:0.5;stroke-miterlimit:10;" x1="557.346" y1="168.085" x2="557.346" y2="205.342"/>
					
						<line style="fill:none;stroke:#D6D6D6;stroke-width:0.5;stroke-miterlimit:10;" x1="561.227" y1="168.137" x2="561.227" y2="205.394"/>
					
						<line style="fill:none;stroke:#D6D6D6;stroke-width:0.5;stroke-miterlimit:10;" x1="565.108" y1="168.188" x2="565.108" y2="205.445"/>
				</g>
			</g>
			<path style="fill:#D6D6D6;" d="M570.106,196.459v3.559c-14.657,4.333-30.258,4.333-44.928,0v-3.559
				C539.847,200.792,555.449,200.792,570.106,196.459z"/>
			<path style="fill:#508CC9;" d="M525.184,168.435v32.842h2.734v-32.842c0-0.669-0.612-1.211-1.367-1.211l0,0
				C525.796,167.224,525.184,167.766,525.184,168.435z"/>
			<path style="fill:#508CC9;" d="M567.368,168.435v32.842h2.734v-32.842c0-0.669-0.612-1.211-1.367-1.211l0,0
				C567.98,167.224,567.368,167.766,567.368,168.435z"/>
			<path style="fill:#1C334D;" d="M570.106,209.476v9.767c-14.657,4.333-30.258,4.333-44.928,0v-9.767
				C539.847,213.809,555.449,213.809,570.106,209.476z"/>
			<path style="fill:#1C334D;" d="M570.106,276.33v9.767c-14.657,4.333-30.258,4.333-44.928,0v-9.767
				C539.847,280.663,555.449,280.663,570.106,276.33z"/>
			<path style="fill:#1C334D;" d="M566.214,224.726v47.172c-12.118,3.582-25.017,3.582-37.145,0v-47.172
				C541.198,228.308,554.096,228.308,566.214,224.726z"/>
			<path style="fill:none;stroke:#1C334D;stroke-width:0.75;stroke-miterlimit:10;" d="M566.214,301.611v21.212
				c-12.118,3.582-25.017,3.582-37.145,0v-21.212C541.198,305.193,554.096,305.193,566.214,301.611z"/>
			<path style="fill:none;stroke:#264360;stroke-width:0.75;stroke-miterlimit:10;" d="M547.646,269.743
				c-4.629,0-9.233-0.528-13.734-1.573v-37.269c4.518,0.898,9.117,1.352,13.734,1.352c4.617,0,9.214-0.454,13.728-1.352v37.269
				C556.876,269.215,552.273,269.743,547.646,269.743z"/>
			<path style="fill:#1C334D;" d="M570.106,335.759v9.767c-14.657,4.333-30.258,4.333-44.928,0v-9.767
				C539.847,340.092,555.449,340.092,570.106,335.759z"/>
			<path style="fill:#1C334D;" d="M570.106,326.54v5.737c-14.657,4.333-30.258,4.333-44.928,0v-5.737
				C539.847,330.873,555.449,330.873,570.106,326.54z"/>
			<path style="fill:#1C334D;" d="M570.106,289.907v5.737c-14.657,4.333-30.258,4.333-44.928,0v-5.737
				C539.847,294.24,555.449,294.24,570.106,289.907z"/>
			<path style="fill:#1C334D;" d="M570.106,402.613v9.767c-14.657,4.333-30.258,4.333-44.928,0v-9.767
				C539.847,406.946,555.449,406.946,570.106,402.613z"/>
			<path style="fill:#1C334D;" d="M566.214,351.009v47.172c-12.118,3.582-25.017,3.582-37.145,0v-47.172
				C541.198,354.591,554.096,354.591,566.214,351.009z"/>
			<path style="fill:none;stroke:#264360;stroke-width:0.75;stroke-miterlimit:10;" d="M547.646,396.026
				c-4.629,0-9.233-0.528-13.734-1.573v-37.269c4.518,0.898,9.117,1.352,13.734,1.352c4.617,0,9.214-0.454,13.728-1.352v37.269
				C556.876,395.498,552.273,396.026,547.646,396.026z"/>
			<path style="fill:#508CC9;" d="M570.106,197.924v3.559c-14.657,4.333-30.258,4.333-44.928,0v-3.559
				C539.847,202.257,555.449,202.257,570.106,197.924z"/>
		</g>
		<g>
			<defs>
				<path id="SVGID_62_" d="M570.106,201.481v220.173c-14.657,4.333-30.258,4.333-44.928,0V201.481
					C539.847,205.814,555.449,205.814,570.106,201.481z"/>
			</defs>
			<clipPath id="SVGID_00000013173761001602900490000010990264178816791467_">
				<use xlink:href="#SVGID_62_"  style="overflow:visible;"/>
			</clipPath>
			
				<linearGradient id="SVGID_00000018220377196837697270000008877472706279698846_" gradientUnits="userSpaceOnUse" x1="269.2969" y1="312.9217" x2="277.0738" y2="312.9217" gradientTransform="matrix(1 0 0 1 255.8842 0)">
				<stop  offset="0" style="stop-color:#000B17;stop-opacity:0.5"/>
				<stop  offset="0.9963" style="stop-color:#000000;stop-opacity:0"/>
			</linearGradient>
			
				<rect x="525.181" y="201.831" style="clip-path:url(#SVGID_00000013173761001602900490000010990264178816791467_);fill:url(#SVGID_00000018220377196837697270000008877472706279698846_);" width="7.777" height="222.182"/>
		</g>
	</g>
	<g>
		<g>
			<path style="fill:#E3544B;" d="M487.389,153.923v225.715v32.413v9.611c12.335,3.645,25.46,3.645,37.795,0v-9.611v-32.413V153.923
				H487.389z"/>
			<g>
				<defs>
					<path id="SVGID_65_" d="M525.184,159.918L525.184,159.918c-12.335,3.645-25.46,3.645-37.794,0h0v-23.845h37.795V159.918z"/>
				</defs>
				<clipPath id="SVGID_00000183967249557770200130000014445311200231124641_">
					<use xlink:href="#SVGID_65_"  style="overflow:visible;"/>
				</clipPath>
				<path style="clip-path:url(#SVGID_00000183967249557770200130000014445311200231124641_);fill:#EBEBEB;" d="M525.184,159.918
					L525.184,159.918c-12.335,3.645-25.46,3.645-37.794,0h0v-23.845h37.795V159.918z"/>
				<g style="clip-path:url(#SVGID_00000183967249557770200130000014445311200231124641_);">
					
						<line style="fill:none;stroke:#D6D6D6;stroke-width:0.5;stroke-miterlimit:10;" x1="491.928" y1="134.349" x2="491.928" y2="164.745"/>
					
						<line style="fill:none;stroke:#D6D6D6;stroke-width:0.5;stroke-miterlimit:10;" x1="495.518" y1="134.396" x2="495.518" y2="164.792"/>
					
						<line style="fill:none;stroke:#D6D6D6;stroke-width:0.5;stroke-miterlimit:10;" x1="499.107" y1="134.443" x2="499.107" y2="164.839"/>
					
						<line style="fill:none;stroke:#D6D6D6;stroke-width:0.5;stroke-miterlimit:10;" x1="502.697" y1="134.49" x2="502.697" y2="164.887"/>
					
						<line style="fill:none;stroke:#D6D6D6;stroke-width:0.5;stroke-miterlimit:10;" x1="506.286" y1="134.538" x2="506.286" y2="164.934"/>
					
						<line style="fill:none;stroke:#D6D6D6;stroke-width:0.5;stroke-miterlimit:10;" x1="509.876" y1="134.585" x2="509.876" y2="164.981"/>
					
						<line style="fill:none;stroke:#D6D6D6;stroke-width:0.5;stroke-miterlimit:10;" x1="513.465" y1="134.632" x2="513.465" y2="165.028"/>
					
						<line style="fill:none;stroke:#D6D6D6;stroke-width:0.5;stroke-miterlimit:10;" x1="517.055" y1="134.679" x2="517.055" y2="165.076"/>
					
						<line style="fill:none;stroke:#D6D6D6;stroke-width:0.5;stroke-miterlimit:10;" x1="520.644" y1="134.726" x2="520.644" y2="165.123"/>
				</g>
			</g>
			<path style="fill:#D6D6D6;" d="M525.178,158.181v2.922c-12.333,3.643-25.453,3.643-37.787,0v-2.922
				C499.724,161.824,512.845,161.824,525.178,158.181z"/>
			<path style="fill:#FF766E;" d="M487.389,134.877v26.731h2.366v-26.731c0-0.558-0.53-1.011-1.183-1.011l0,0
				C487.919,133.867,487.389,134.319,487.389,134.877z"/>
			<path style="fill:#FF766E;" d="M522.817,134.877v26.731h2.366v-26.731c0-0.558-0.53-1.011-1.183-1.011l0,0
				C523.347,133.867,522.817,134.319,522.817,134.877z"/>
			<path style="fill:#A63D38;" d="M525.178,168.662v12.877c-12.333,3.643-25.453,3.643-37.787,0v-12.877
				C499.724,172.305,512.845,172.305,525.178,168.662z"/>
			<path style="fill:#FF766E;" d="M525.178,159.317v2.922c-12.333,3.643-25.453,3.643-37.787,0v-2.922
				C499.724,162.96,512.845,162.96,525.178,159.317z"/>
			<path style="fill:#A63D38;" d="M525.178,243.167v12.877c-12.333,3.643-25.453,3.643-37.787,0v-12.877
				C499.724,246.81,512.845,246.81,525.178,243.167z"/>
			<path style="fill:#A63D38;" d="M525.178,329.016v12.877c-12.333,3.643-25.453,3.643-37.787,0v-12.877
				C499.724,332.659,512.845,332.659,525.178,329.016z"/>
			<path style="fill:#A63D38;" d="M525.178,400.491v12.877c-12.333,3.643-25.453,3.643-37.787,0v-12.877
				C499.724,404.135,512.845,404.135,525.178,400.491z"/>
			<path style="fill:#A63D38;" d="M519.345,196.095v25.891c-1.996,2.405-3.303,3.979-5.299,6.383
				c-5.137,0.877-10.385,0.877-15.522,0c-1.996-2.405-3.303-3.979-5.299-6.383v-25.891c2.988-2.588,4.428-3.835,7.415-6.423
				c3.749,0.462,7.541,0.462,11.29,0C514.917,192.26,516.357,193.507,519.345,196.095z"/>
			<path style="fill:#E3544B;" d="M506.285,225.396c-1.95,0-3.911-0.136-5.846-0.404l-3.584-4.317v-22.922l4.969-4.304
				c1.483,0.133,2.977,0.2,4.461,0.2c1.482,0,2.976-0.067,4.46-0.2l4.969,4.304v22.922l-3.584,4.317
				C510.195,225.26,508.234,225.396,506.285,225.396z"/>
			<path style="fill:#A63D38;" d="M506.285,221.765c-1.32,0-2.652-0.068-3.975-0.204l-1.824-2.196v-19.952l2.573-2.229
				c1.078,0.065,2.157,0.098,3.226,0.098c1.067,0,2.147-0.033,3.224-0.098l2.573,2.229v19.952l-1.824,2.196
				C508.936,221.697,507.605,221.765,506.285,221.765z"/>
			<path style="fill:#A63D38;" d="M519.345,365.734v25.891c-1.996,2.405-3.303,3.979-5.299,6.384
				c-5.137,0.877-10.385,0.877-15.522,0c-1.996-2.405-3.303-3.979-5.299-6.384v-25.891c2.988-2.588,4.428-3.835,7.415-6.423
				c3.749,0.463,7.541,0.463,11.29,0C514.917,361.9,516.357,363.147,519.345,365.734z"/>
			<path style="fill:#E3544B;" d="M506.285,395.036c-1.95,0-3.911-0.136-5.846-0.404l-3.584-4.318v-22.921l4.969-4.304
				c1.483,0.132,2.977,0.2,4.461,0.2c1.482,0,2.976-0.067,4.46-0.2l4.969,4.302v22.922l-3.583,4.316
				C510.195,394.9,508.234,395.036,506.285,395.036z"/>
			<path style="fill:#A63D38;" d="M506.285,391.405c-1.32,0-2.652-0.068-3.975-0.204l-1.824-2.197v-19.952l2.574-2.229
				c1.078,0.065,2.157,0.098,3.224,0.098c1.066,0,2.145-0.033,3.224-0.098l2.573,2.229v19.952l-1.823,2.197
				C508.937,391.337,507.606,391.405,506.285,391.405z"/>
			<path style="fill:#A63D38;" d="M519.345,271.005v47.268c-1.996,2.405-3.303,3.979-5.299,6.383
				c-5.137,0.877-10.385,0.877-15.522,0c-1.996-2.405-3.303-3.979-5.299-6.383v-47.268c2.988-2.588,4.428-3.835,7.415-6.423
				c3.749,0.463,7.541,0.463,11.29,0C514.917,267.17,516.357,268.417,519.345,271.005z"/>
			<path style="fill:none;stroke:#E3544B;stroke-width:0.75;stroke-miterlimit:10;" d="M506.285,321.684
				c-1.95,0-3.911-0.136-5.846-0.404l-3.584-4.318v-44.299l4.969-4.304c1.483,0.134,2.977,0.201,4.461,0.201
				c1.482,0,2.976-0.067,4.46-0.201l4.969,4.304v44.299l-3.584,4.318C510.195,321.548,508.234,321.684,506.285,321.684z"/>
			<path style="fill:#A63D38;" d="M525.178,231.603v5.072c-12.333,3.643-25.453,3.643-37.787,0v-5.072
				C499.724,235.247,512.845,235.247,525.178,231.603z"/>
			<path style="fill:#A63D38;" d="M525.178,347.637v5.072c-12.333,3.643-25.453,3.643-37.787,0v-5.072
				C499.724,351.28,512.845,351.28,525.178,347.637z"/>
		</g>
		<g>
			<defs>
				<path id="SVGID_67_" d="M525.178,162.242v259.424c-12.333,3.643-25.453,3.643-37.787,0V162.242
					C499.724,165.885,512.845,165.885,525.178,162.242z"/>
			</defs>
			<clipPath id="SVGID_00000118357677132728860270000000503642589402699420_">
				<use xlink:href="#SVGID_67_"  style="overflow:visible;"/>
			</clipPath>
			
				<linearGradient id="SVGID_00000096046011070054061190000001360190665184273816_" gradientUnits="userSpaceOnUse" x1="280.8352" y1="293.1417" x2="288.6121" y2="293.1417" gradientTransform="matrix(1 0 0 1 206.556 0)">
				<stop  offset="0" style="stop-color:#000B17;stop-opacity:0.5"/>
				<stop  offset="0.9963" style="stop-color:#000000;stop-opacity:0"/>
			</linearGradient>
			
				<rect x="487.391" y="162.148" style="clip-path:url(#SVGID_00000118357677132728860270000000503642589402699420_);fill:url(#SVGID_00000096046011070054061190000001360190665184273816_);" width="7.777" height="261.987"/>
			
				<linearGradient id="SVGID_00000023271566920617426700000012264507983012811394_" gradientUnits="userSpaceOnUse" x1="83.1465" y1="293.0804" x2="90.9234" y2="293.0804" gradientTransform="matrix(-1 0 0 1 608.3162 0)">
				<stop  offset="0" style="stop-color:#000B17;stop-opacity:0.5"/>
				<stop  offset="0.9963" style="stop-color:#000000;stop-opacity:0"/>
			</linearGradient>
			
				<polygon style="clip-path:url(#SVGID_00000118357677132728860270000000503642589402699420_);fill:url(#SVGID_00000023271566920617426700000012264507983012811394_);" points="
				517.393,424.013 525.17,424.013 525.17,162.148 517.393,162.148 			"/>
		</g>
	</g>
	<g>
		<g>
			<path style="fill:#73B2BA;" d="M434.922,152.129v211.195v44.996v13.342c17.123,5.06,35.344,5.06,52.467,0V408.32v-44.996V152.129
				H434.922z"/>
			<g>
				<defs>
					<path id="SVGID_71_" d="M487.389,160.452L487.389,160.452c-17.123,5.06-35.344,5.06-52.467,0l0,0V127.35h52.467V160.452z"/>
				</defs>
				<clipPath id="SVGID_00000155862458092868151710000008986441354963854492_">
					<use xlink:href="#SVGID_71_"  style="overflow:visible;"/>
				</clipPath>
				<path style="clip-path:url(#SVGID_00000155862458092868151710000008986441354963854492_);fill:#EBEBEB;" d="M487.389,160.452
					L487.389,160.452c-17.123,5.06-35.344,5.06-52.467,0l0,0V127.35h52.467V160.452z"/>
				<g style="clip-path:url(#SVGID_00000155862458092868151710000008986441354963854492_);">
					
						<line style="fill:none;stroke:#D6D6D6;stroke-width:0.5;stroke-miterlimit:10;" x1="441.274" y1="125.828" x2="441.274" y2="166.013"/>
					
						<line style="fill:none;stroke:#D6D6D6;stroke-width:0.5;stroke-miterlimit:10;" x1="445.25" y1="125.878" x2="445.25" y2="166.063"/>
					
						<line style="fill:none;stroke:#D6D6D6;stroke-width:0.5;stroke-miterlimit:10;" x1="449.227" y1="125.928" x2="449.227" y2="166.113"/>
					
						<line style="fill:none;stroke:#D6D6D6;stroke-width:0.5;stroke-miterlimit:10;" x1="453.204" y1="125.978" x2="453.204" y2="166.163"/>
					
						<line style="fill:none;stroke:#D6D6D6;stroke-width:0.5;stroke-miterlimit:10;" x1="457.18" y1="126.027" x2="457.18" y2="166.213"/>
					
						<line style="fill:none;stroke:#D6D6D6;stroke-width:0.5;stroke-miterlimit:10;" x1="461.157" y1="126.077" x2="461.157" y2="166.263"/>
					
						<line style="fill:none;stroke:#D6D6D6;stroke-width:0.5;stroke-miterlimit:10;" x1="465.134" y1="126.127" x2="465.134" y2="166.313"/>
					
						<line style="fill:none;stroke:#D6D6D6;stroke-width:0.5;stroke-miterlimit:10;" x1="469.11" y1="126.177" x2="469.11" y2="166.363"/>
					
						<line style="fill:none;stroke:#D6D6D6;stroke-width:0.5;stroke-miterlimit:10;" x1="473.087" y1="126.227" x2="473.087" y2="166.413"/>
					
						<line style="fill:none;stroke:#D6D6D6;stroke-width:0.5;stroke-miterlimit:10;" x1="477.064" y1="126.277" x2="477.064" y2="166.462"/>
					
						<line style="fill:none;stroke:#D6D6D6;stroke-width:0.5;stroke-miterlimit:10;" x1="481.041" y1="126.327" x2="481.041" y2="166.512"/>
				</g>
			</g>
			<path style="fill:#D6D6D6;" d="M487.391,158.185v4.132c-17.126,5.059-35.342,5.059-52.468,0v-4.132
				C452.049,163.257,470.265,163.257,487.391,158.185z"/>
			<path style="fill:#86CFD9;" d="M434.922,125.834v37.454h3.129v-37.454c0-0.747-0.701-1.353-1.565-1.353l0,0
				C435.622,124.482,434.922,125.087,434.922,125.834z"/>
			<path style="fill:#86CFD9;" d="M484.26,125.834v37.454h3.129v-37.454c0-0.747-0.701-1.353-1.565-1.353l0,0
				C484.96,124.482,484.26,125.087,484.26,125.834z"/>
			<path style="fill:#52959E;" d="M487.391,170.471v8.255c-17.126,5.059-35.342,5.059-52.468,0v-8.255
				C452.049,175.542,470.265,175.542,487.391,170.471z"/>
			<path style="fill:#86CFD9;" d="M487.391,159.801v4.132c-17.126,5.059-35.342,5.059-52.468,0v-4.132
				C452.049,164.872,470.265,164.872,487.391,159.801z"/>
			<path style="fill:#52959E;" d="M487.391,199.16v8.255c-17.126,5.059-35.342,5.059-52.468,0v-8.255
				C452.049,204.231,470.265,204.231,487.391,199.16z"/>
			<path style="fill:#52959E;" d="M487.391,229.923v4.127c-17.126,5.059-35.342,5.059-52.468,0v-4.127
				C452.049,234.995,470.265,234.995,487.391,229.923z"/>
			<path style="fill:#52959E;" d="M487.391,240.868v102.214c-17.126,5.059-35.342,5.059-52.468,0V240.868
				C452.049,245.939,470.265,245.939,487.391,240.868z"/>
			<path style="fill:#52959E;" d="M487.391,349.843v4.127c-17.126,5.059-35.342,5.059-52.468,0v-4.127
				C452.049,354.914,470.265,354.914,487.391,349.843z"/>
			<g>
				<path style="fill:none;stroke:#52959E;stroke-linecap:round;stroke-linejoin:round;stroke-miterlimit:10;" d="M443.64,188.29
					c0.701-0.971,0.496-2.449-0.377-3.27c-0.873-0.821-2.276-0.963-3.35-0.431c-1.073,0.533-1.793,1.665-1.937,2.854
					c-0.249,2.057,1.316,4.169,3.357,4.529c1.564,0.276,3.151-0.375,4.486-1.238c1.334-0.862,2.525-1.947,3.924-2.699
					c2.453-1.319,5.582-1.476,8.004-0.1c2.421,1.376,3.916,4.367,3.25,7.072c-0.666,2.704-3.652,4.707-6.35,4.013
					c-1.238-0.318-2.362-1.184-2.83-2.373c-0.468-1.189-0.185-2.681,0.796-3.5c0.981-0.82,2.619-0.778,3.454,0.19"/>
				<path style="fill:none;stroke:#52959E;stroke-linecap:round;stroke-linejoin:round;stroke-miterlimit:10;" d="M478.671,188.29
					c-0.701-0.971-0.496-2.449,0.377-3.27c0.873-0.821,2.276-0.963,3.35-0.431c1.073,0.533,1.793,1.665,1.937,2.854
					c0.249,2.057-1.316,4.169-3.357,4.529c-1.564,0.276-3.151-0.375-4.486-1.238c-1.334-0.862-2.525-1.947-3.924-2.699
					c-2.453-1.319-5.582-1.476-8.004-0.1c-2.421,1.376-3.916,4.367-3.25,7.072c0.666,2.704,3.652,4.707,6.35,4.013
					c1.238-0.318,2.362-1.184,2.83-2.373c0.468-1.189,0.185-2.681-0.796-3.5c-0.981-0.82-2.619-0.778-3.454,0.19"/>
			</g>
			<path style="fill:#52959E;" d="M487.391,375.492v8.255c-17.126,5.059-35.342,5.059-52.468,0v-8.255
				C452.049,380.564,470.265,380.564,487.391,375.492z"/>
			<path style="fill:#52959E;" d="M487.391,404.181v8.254c-17.126,5.059-35.342,5.059-52.468,0v-8.254
				C452.049,409.253,470.265,409.253,487.391,404.181z"/>
			<g>
				<path style="fill:none;stroke:#52959E;stroke-linecap:round;stroke-linejoin:round;stroke-miterlimit:10;" d="M443.64,393.312
					c0.701-0.971,0.496-2.449-0.377-3.27c-0.873-0.821-2.276-0.963-3.35-0.431c-1.073,0.533-1.793,1.665-1.937,2.854
					c-0.249,2.057,1.316,4.169,3.357,4.529c1.564,0.276,3.151-0.375,4.486-1.237c1.334-0.862,2.525-1.947,3.924-2.699
					c2.453-1.319,5.582-1.476,8.004-0.1c2.421,1.376,3.916,4.367,3.25,7.072c-0.666,2.704-3.652,4.707-6.35,4.013
					c-1.238-0.318-2.362-1.184-2.83-2.374c-0.468-1.189-0.185-2.68,0.796-3.5c0.981-0.82,2.619-0.778,3.454,0.19"/>
				<path style="fill:none;stroke:#52959E;stroke-linecap:round;stroke-linejoin:round;stroke-miterlimit:10;" d="M478.671,393.312
					c-0.701-0.971-0.496-2.449,0.377-3.27c0.873-0.821,2.276-0.963,3.35-0.431c1.073,0.533,1.793,1.665,1.937,2.854
					c0.249,2.057-1.316,4.169-3.357,4.529c-1.564,0.276-3.151-0.375-4.486-1.237c-1.334-0.862-2.525-1.947-3.924-2.699
					c-2.453-1.319-5.582-1.476-8.004-0.1c-2.421,1.376-3.916,4.367-3.25,7.072c0.666,2.704,3.652,4.707,6.35,4.013
					c1.238-0.318,2.362-1.184,2.83-2.374c0.468-1.189,0.185-2.68-0.796-3.5c-0.981-0.82-2.619-0.778-3.454,0.19"/>
			</g>
			<g>
				<ellipse style="fill:#52959E;" cx="461.155" cy="222.226" rx="3.376" ry="3.956"/>
				<g>
					<path style="fill:#52959E;" d="M472.849,224.177c-1.342,0-2.429-1.275-2.429-2.847c0-1.572,1.088-2.847,2.429-2.847
						c1.342,0,2.429,1.275,2.429,2.847C475.279,222.902,474.191,224.177,472.849,224.177z"/>
					<ellipse style="fill:#52959E;" cx="481.466" cy="218.907" rx="1.622" ry="1.901"/>
					<path style="fill:#52959E;" d="M449.465,224.177c1.342,0,2.429-1.275,2.429-2.847c0-1.572-1.088-2.847-2.429-2.847
						c-1.342,0-2.429,1.275-2.429,2.847C447.036,222.902,448.123,224.177,449.465,224.177z"/>
					<ellipse style="fill:#52959E;" cx="440.848" cy="218.907" rx="1.622" ry="1.901"/>
				</g>
			</g>
			<g>
				<ellipse style="fill:#52959E;" cx="461.155" cy="369.753" rx="3.376" ry="3.956"/>
				<g>
					<ellipse style="fill:#52959E;" cx="472.849" cy="368.857" rx="2.429" ry="2.847"/>
					<path style="fill:#52959E;" d="M481.466,368.335c-0.896,0-1.622-0.851-1.622-1.901c0-1.05,0.726-1.901,1.622-1.901
						c0.896,0,1.622,0.851,1.622,1.901C483.088,367.484,482.362,368.335,481.466,368.335z"/>
					<ellipse style="fill:#52959E;" cx="449.465" cy="368.857" rx="2.429" ry="2.847"/>
					<path style="fill:#52959E;" d="M440.848,368.335c0.896,0,1.622-0.851,1.622-1.901c0-1.05-0.726-1.901-1.622-1.901
						s-1.622,0.851-1.622,1.901C439.226,367.484,439.952,368.335,440.848,368.335z"/>
				</g>
			</g>
			<g>
				<rect x="439.226" y="239.368" style="fill:#73B2BA;" width="3.244" height="108.273"/>
				<rect x="479.845" y="239.368" style="fill:#73B2BA;" width="3.244" height="108.273"/>
			</g>
		</g>
		<g>
			<defs>
				<path id="SVGID_73_" d="M487.391,163.937v257.73c-17.126,5.059-35.342,5.059-52.468,0v-257.73
					C452.049,168.996,470.265,168.996,487.391,163.937z"/>
			</defs>
			<clipPath id="SVGID_00000023998813960173131000000011711651055112760198_">
				<use xlink:href="#SVGID_73_"  style="overflow:visible;"/>
			</clipPath>
			
				<linearGradient id="SVGID_00000000218084195170671890000012426659303194989184_" gradientUnits="userSpaceOnUse" x1="263.5109" y1="293.9159" x2="271.2878" y2="293.9159" gradientTransform="matrix(1 0 0 1 171.4111 0)">
				<stop  offset="0" style="stop-color:#000B17;stop-opacity:0.5"/>
				<stop  offset="0.9963" style="stop-color:#000000;stop-opacity:0"/>
			</linearGradient>
			
				<rect x="434.922" y="164.126" style="clip-path:url(#SVGID_00000023998813960173131000000011711651055112760198_);fill:url(#SVGID_00000000218084195170671890000012426659303194989184_);" width="7.777" height="259.579"/>
			
				<linearGradient id="SVGID_00000092439158517001522120000010826086320525301401_" gradientUnits="userSpaceOnUse" x1="93.3058" y1="294.0356" x2="101.0828" y2="294.0356" gradientTransform="matrix(-1 0 0 1 580.7133 0)">
				<stop  offset="0" style="stop-color:#000B17;stop-opacity:0.5"/>
				<stop  offset="0.9963" style="stop-color:#000000;stop-opacity:0"/>
			</linearGradient>
			
				<polygon style="clip-path:url(#SVGID_00000023998813960173131000000011711651055112760198_);fill:url(#SVGID_00000092439158517001522120000010826086320525301401_);" points="
				479.63,424.135 487.408,424.135 487.408,163.936 479.63,163.936 			"/>
		</g>
	</g>
	<g>
		<g>
			<path style="fill:#FF8787;" d="M401.912,127.848v257.109v28.31v8.394c10.773,3.183,22.237,3.183,33.01,0v-8.394v-28.31V127.848
				H401.912z"/>
			<g>
				<defs>
					<path id="SVGID_77_" d="M434.922,133.085L434.922,133.085c-10.773,3.183-22.237,3.183-33.01,0l0,0v-20.826h33.01V133.085z"/>
				</defs>
				<clipPath id="SVGID_00000173883835193473271700000013524165487175526311_">
					<use xlink:href="#SVGID_77_"  style="overflow:visible;"/>
				</clipPath>
				<path style="clip-path:url(#SVGID_00000173883835193473271700000013524165487175526311_);fill:#EBEBEB;" d="M434.922,133.085
					L434.922,133.085c-10.773,3.183-22.237,3.183-33.01,0l0,0v-20.826h33.01V133.085z"/>
				<g style="clip-path:url(#SVGID_00000173883835193473271700000013524165487175526311_);">
					
						<line style="fill:none;stroke:#D6D6D6;stroke-width:0.5;stroke-miterlimit:10;" x1="406.339" y1="111.068" x2="406.339" y2="135.728"/>
					
						<line style="fill:none;stroke:#D6D6D6;stroke-width:0.5;stroke-miterlimit:10;" x1="409.359" y1="111.106" x2="409.359" y2="135.767"/>
					
						<line style="fill:none;stroke:#D6D6D6;stroke-width:0.5;stroke-miterlimit:10;" x1="412.378" y1="111.144" x2="412.378" y2="135.805"/>
					
						<line style="fill:none;stroke:#D6D6D6;stroke-width:0.5;stroke-miterlimit:10;" x1="415.398" y1="111.183" x2="415.398" y2="135.843"/>
					
						<line style="fill:none;stroke:#D6D6D6;stroke-width:0.5;stroke-miterlimit:10;" x1="418.417" y1="111.221" x2="418.417" y2="135.882"/>
					
						<line style="fill:none;stroke:#D6D6D6;stroke-width:0.5;stroke-miterlimit:10;" x1="421.436" y1="111.259" x2="421.436" y2="135.92"/>
					
						<line style="fill:none;stroke:#D6D6D6;stroke-width:0.5;stroke-miterlimit:10;" x1="424.456" y1="111.298" x2="424.456" y2="135.958"/>
					
						<line style="fill:none;stroke:#D6D6D6;stroke-width:0.5;stroke-miterlimit:10;" x1="427.475" y1="111.336" x2="427.475" y2="135.997"/>
					
						<line style="fill:none;stroke:#D6D6D6;stroke-width:0.5;stroke-miterlimit:10;" x1="430.495" y1="111.374" x2="430.495" y2="136.035"/>
				</g>
			</g>
			<path style="fill:#D6D6D6;" d="M434.923,131.636v2.199c-10.772,3.183-22.234,3.183-33.006,0v-2.199
				C412.689,134.819,424.151,134.819,434.923,131.636z"/>
			<path style="fill:#FFB5B5;" d="M401.912,111.15v23.351h2.042V111.15c0-0.481-0.457-0.87-1.021-0.87l0,0
				C402.369,110.28,401.912,110.669,401.912,111.15z"/>
			<path style="fill:#FFB5B5;" d="M432.88,111.15v23.351h2.042V111.15c0-0.481-0.457-0.87-1.021-0.87l0,0
				C433.337,110.28,432.88,110.669,432.88,111.15z"/>
			<path style="fill:#E67070;" d="M434.923,140.392v7.093c-10.772,3.183-22.234,3.183-33.006,0v-7.093
				C412.689,143.575,424.151,143.575,434.923,140.392z"/>
			<path style="fill:#FFB5B5;" d="M434.923,132.742v2.199c-10.772,3.183-22.234,3.183-33.006,0v-2.199
				C412.689,135.925,424.151,135.925,434.923,132.742z"/>
			<path style="fill:#E67070;" d="M434.923,152.718v3.546c-10.772,3.183-22.234,3.183-33.006,0v-3.546
				C412.689,155.902,424.151,155.902,434.923,152.718z"/>
			<path style="fill:#E67070;" d="M434.923,408.307v7.093c-10.772,3.183-22.234,3.183-33.006,0v-7.093
				C412.689,411.49,424.151,411.49,434.923,408.307z"/>
			<path style="fill:#E67070;" d="M434.923,399.712v3.546c-10.772,3.183-22.234,3.183-33.006,0v-3.546
				C412.689,402.895,424.151,402.895,434.923,399.712z"/>
			<polygon style="fill:#E67070;" points="418.42,218.395 409.058,204.932 418.42,191.468 427.782,204.932 			"/>
			<polygon style="fill:#E67070;" points="418.42,237.902 412.877,229.93 418.42,221.959 423.963,229.93 			"/>
			<polygon style="fill:#E67070;" points="418.42,187.404 412.877,179.432 418.42,171.461 423.963,179.432 			"/>
			<polygon style="fill:#E67070;" points="418.42,268.831 409.058,255.368 418.42,241.905 427.782,255.368 			"/>
			<polygon style="fill:#E67070;" points="418.42,288.338 412.877,280.366 418.42,272.395 423.963,280.366 			"/>
			<polygon style="fill:#E67070;" points="418.42,319.267 409.058,305.804 418.42,292.341 427.782,305.804 			"/>
			<polygon style="fill:#E67070;" points="418.42,338.774 412.877,330.803 418.42,322.831 423.963,330.803 			"/>
			<polygon style="fill:#E67070;" points="418.42,369.704 409.058,356.241 418.42,342.777 427.782,356.241 			"/>
			
				<polygon style="fill:none;stroke:#E67070;stroke-width:0.75;stroke-linecap:round;stroke-linejoin:round;stroke-miterlimit:10;" points="
				421.329,239.903 428.265,229.93 421.482,220.177 432.084,204.932 421.308,189.436 428.265,179.432 418.419,165.276 
				408.574,179.432 415.531,189.436 404.757,204.932 415.357,220.177 408.574,229.93 415.51,239.903 404.757,255.368 
				415.357,270.613 408.574,280.366 415.51,290.34 404.757,305.805 415.357,321.049 408.574,330.802 415.51,340.776 
				404.757,356.241 415.357,371.485 408.574,381.239 418.419,395.396 428.265,381.239 421.482,371.486 432.084,356.241 
				421.329,340.776 428.265,330.802 421.482,321.049 432.084,305.805 421.329,290.34 428.265,280.366 421.482,270.613 
				432.084,255.368 			"/>
			<polygon style="fill:#E67070;" points="418.42,389.211 412.877,381.239 418.42,373.268 423.963,381.239 			"/>
		</g>
		<g>
			<defs>
				<path id="SVGID_79_" d="M434.923,134.937v286.729c-10.772,3.183-22.234,3.183-33.006,0V134.937
					C412.689,138.12,424.151,138.12,434.923,134.937z"/>
			</defs>
			<clipPath id="SVGID_00000000932808632656583130000009132158616363221422_">
				<use xlink:href="#SVGID_79_"  style="overflow:visible;"/>
			</clipPath>
			
				<linearGradient id="SVGID_00000080184246177787170300000015597125867392415656_" gradientUnits="userSpaceOnUse" x1="253.6906" y1="279.5543" x2="261.4675" y2="279.5543" gradientTransform="matrix(1 0 0 1 148.2308 0)">
				<stop  offset="0" style="stop-color:#000B17;stop-opacity:0.5"/>
				<stop  offset="0.9963" style="stop-color:#000000;stop-opacity:0"/>
			</linearGradient>
			
				<rect x="401.921" y="135.06" style="clip-path:url(#SVGID_00000000932808632656583130000009132158616363221422_);fill:url(#SVGID_00000080184246177787170300000015597125867392415656_);" width="7.777" height="288.989"/>
			
				<linearGradient id="SVGID_00000098915444207593682040000001366196602326522556_" gradientUnits="userSpaceOnUse" x1="90.9773" y1="279.3219" x2="98.7542" y2="279.3219" gradientTransform="matrix(-1 0 0 1 525.9003 0)">
				<stop  offset="0" style="stop-color:#000B17;stop-opacity:0.5"/>
				<stop  offset="0.9963" style="stop-color:#000000;stop-opacity:0"/>
			</linearGradient>
			
				<polygon style="clip-path:url(#SVGID_00000000932808632656583130000009132158616363221422_);fill:url(#SVGID_00000098915444207593682040000001366196602326522556_);" points="
				427.146,423.706 434.923,423.706 434.923,134.938 427.146,134.938 			"/>
		</g>
	</g>
	<g>
		<g>
			<path style="fill:#FFC45F;" d="M342.226,109.557v245.739v51.187v15.178c19.479,5.756,40.207,5.756,59.686,0v-15.178v-51.187
				V109.557H342.226z"/>
			<g>
				<defs>
					<path id="SVGID_83_" d="M401.912,119.025L401.912,119.025c-19.479,5.756-40.207,5.756-59.686,0l0,0V81.369h59.686V119.025z"/>
				</defs>
				<clipPath id="SVGID_00000073682757399492085890000007794655311114280856_">
					<use xlink:href="#SVGID_83_"  style="overflow:visible;"/>
				</clipPath>
				<path style="clip-path:url(#SVGID_00000073682757399492085890000007794655311114280856_);fill:#EBEBEB;" d="M401.912,119.025
					L401.912,119.025c-19.479,5.756-40.207,5.756-59.686,0l0,0V81.369h59.686V119.025z"/>
				<g style="clip-path:url(#SVGID_00000073682757399492085890000007794655311114280856_);">
					
						<line style="fill:none;stroke:#D6D6D6;stroke-width:0.75;stroke-miterlimit:10;" x1="348.165" y1="80.056" x2="348.165" y2="122.811"/>
					
						<line style="fill:none;stroke:#D6D6D6;stroke-width:0.75;stroke-miterlimit:10;" x1="353.477" y1="80.115" x2="353.477" y2="122.87"/>
					
						<line style="fill:none;stroke:#D6D6D6;stroke-width:0.75;stroke-miterlimit:10;" x1="358.789" y1="80.174" x2="358.789" y2="122.929"/>
					
						<line style="fill:none;stroke:#D6D6D6;stroke-width:0.75;stroke-miterlimit:10;" x1="364.101" y1="80.233" x2="364.101" y2="122.988"/>
					
						<line style="fill:none;stroke:#D6D6D6;stroke-width:0.75;stroke-miterlimit:10;" x1="369.413" y1="80.293" x2="369.413" y2="123.047"/>
					
						<line style="fill:none;stroke:#D6D6D6;stroke-width:0.75;stroke-miterlimit:10;" x1="374.725" y1="80.352" x2="374.725" y2="123.106"/>
					
						<line style="fill:none;stroke:#D6D6D6;stroke-width:0.75;stroke-miterlimit:10;" x1="380.037" y1="80.411" x2="380.037" y2="123.165"/>
					
						<line style="fill:none;stroke:#D6D6D6;stroke-width:0.75;stroke-miterlimit:10;" x1="385.349" y1="80.47" x2="385.349" y2="123.224"/>
					
						<line style="fill:none;stroke:#D6D6D6;stroke-width:0.75;stroke-miterlimit:10;" x1="390.661" y1="80.529" x2="390.661" y2="123.284"/>
					
						<line style="fill:none;stroke:#D6D6D6;stroke-width:0.75;stroke-miterlimit:10;" x1="395.973" y1="80.588" x2="395.973" y2="123.342"/>
				</g>
			</g>
			<path style="fill:#D6D6D6;" d="M401.917,114.161v3.643c-19.486,5.749-40.207,5.749-59.694,0v-3.643
				C361.71,119.91,382.431,119.91,401.917,114.161z"/>
			<path style="fill:#FFDDA3;" d="M342.226,80.158v38.573h3.082V80.158c0-0.851-0.69-1.541-1.541-1.541l0,0
				C342.916,78.617,342.226,79.307,342.226,80.158z"/>
			<path style="fill:#FFDDA3;" d="M398.83,79.84v38.892h3.082V79.84c0-0.675-0.69-1.223-1.541-1.223l0,0
				C399.52,78.617,398.83,79.164,398.83,79.84z"/>
			<g>
				<path style="fill:none;stroke:#DB9952;stroke-width:2;stroke-linecap:round;stroke-linejoin:round;stroke-miterlimit:10;" d="
					M387.36,182.034c2.706,0.8,4.08,4.316,2.897,6.878c-1.182,2.562-4.427,3.836-7.145,3.078c-2.718-0.758-4.759-3.275-5.302-6.044
					c-0.543-2.769,0.287-5.7,1.895-8.019c1.979-2.855,5.002-4.805,7.315-7.397c3.271-3.666,5.19-9.133,3.388-13.917
					c-3.054-8.107-14.096-8.893-17.572-0.618c-0.817,1.946-1.047,4.184-0.369,6.183c0.678,1.999,2.333,3.703,4.388,4.186
					c2.055,0.483,4.428-0.418,5.438-2.271c1.011-1.853,0.352-4.504-1.521-5.477"/>
				<path style="fill:none;stroke:#DB9952;stroke-width:2;stroke-linecap:round;stroke-linejoin:round;stroke-miterlimit:10;" d="
					M356.779,182.034c-2.706,0.8-4.08,4.316-2.897,6.878c1.182,2.562,4.427,3.836,7.145,3.078c2.718-0.758,4.759-3.275,5.302-6.044
					c0.543-2.769-0.287-5.7-1.895-8.019c-1.979-2.855-5.002-4.805-7.315-7.397c-3.271-3.666-5.19-9.133-3.388-13.917
					c3.055-8.107,14.096-8.893,17.572-0.618c0.817,1.946,1.047,4.184,0.369,6.183c-0.678,1.999-2.333,3.703-4.388,4.186
					c-2.055,0.483-4.428-0.418-5.438-2.271s-0.352-4.504,1.521-5.477"/>
			</g>
			<g>
				<path style="fill:none;stroke:#DB9952;stroke-width:2;stroke-linecap:round;stroke-linejoin:round;stroke-miterlimit:10;" d="
					M356.779,364.006c-2.706-0.8-4.08-4.316-2.897-6.878c1.182-2.562,4.427-3.836,7.145-3.078c2.718,0.758,4.759,3.275,5.302,6.043
					c0.543,2.769-0.287,5.7-1.895,8.019c-1.979,2.855-5.002,4.805-7.315,7.397c-3.271,3.666-5.19,9.133-3.388,13.917
					c3.055,8.108,14.096,8.893,17.572,0.618c0.817-1.946,1.047-4.184,0.369-6.183c-0.678-1.999-2.333-3.703-4.388-4.185
					c-2.055-0.483-4.428,0.418-5.438,2.271c-1.011,1.853-0.352,4.504,1.521,5.477"/>
				<path style="fill:none;stroke:#DB9952;stroke-width:2;stroke-linecap:round;stroke-linejoin:round;stroke-miterlimit:10;" d="
					M387.36,364.006c2.706-0.8,4.08-4.316,2.897-6.878c-1.182-2.562-4.427-3.836-7.145-3.078c-2.718,0.758-4.759,3.275-5.302,6.043
					c-0.543,2.769,0.287,5.7,1.895,8.019c1.979,2.855,5.002,4.805,7.315,7.397c3.271,3.666,5.19,9.133,3.388,13.917
					c-3.054,8.108-14.096,8.893-17.572,0.618c-0.817-1.946-1.047-4.184-0.369-6.183c0.678-1.999,2.333-3.703,4.388-4.185
					c2.055-0.483,4.428,0.418,5.438,2.271c1.011,1.853,0.352,4.504-1.521,5.477"/>
			</g>
			<path style="fill:#DB9952;" d="M401.917,125.5v14.058c-19.486,5.749-40.207,5.749-59.694,0V125.5
				C361.71,131.249,382.431,131.249,401.917,125.5z"/>
			<path style="fill:#DB9952;" d="M401.917,197.509v14.058c-19.486,5.749-40.207,5.749-59.694,0v-14.058
				C361.71,203.258,382.431,203.258,401.917,197.509z"/>
			<path style="fill:#DB9952;" d="M401.917,399.655v14.058c-19.486,5.749-40.207,5.749-59.694,0v-14.058
				C361.71,405.404,382.431,405.404,401.917,399.655z"/>
			<path style="fill:#DB9952;" d="M401.917,327.669v14.058c-19.486,5.749-40.207,5.749-59.694,0v-14.058
				C361.71,333.419,382.431,333.419,401.917,327.669z"/>
			<path style="fill:none;stroke:#DB9952;stroke-width:2;stroke-linecap:round;stroke-linejoin:round;stroke-miterlimit:10;" d="
				M347.344,219.586v102.125c16.005,4.722,33.025,4.722,49.03,0V219.586C380.369,224.308,363.35,224.308,347.344,219.586z"/>
			<path style="fill:none;stroke:#DB9952;stroke-linecap:round;stroke-linejoin:round;stroke-miterlimit:10;" d="M371.859,321.622
				c-7.053,0-14.065-0.897-20.884-2.67v-94.643c6.839,1.626,13.843,2.449,20.884,2.449c7.041,0,14.047-0.823,20.884-2.449v94.643
				C385.925,320.725,378.912,321.622,371.859,321.622z"/>
			<g>
				<path style="fill:#FFC45F;" d="M342.223,130.1c7.141,2.106,14.439,3.437,21.786,3.994v4.854
					c-7.347-0.557-14.645-1.888-21.786-3.994V130.1z"/>
				<path style="fill:#FFC45F;" d="M401.917,130.1v4.854c-7.141,2.106-14.439,3.437-21.786,3.994v-4.854
					C387.478,133.538,394.776,132.206,401.917,130.1z"/>
			</g>
			<g>
				<path style="fill:#FFC45F;" d="M342.223,404.416c7.141,2.106,14.439,3.437,21.786,3.994v4.853
					c-7.347-0.557-14.645-1.888-21.786-3.994V404.416z"/>
				<path style="fill:#FFC45F;" d="M401.917,404.416v4.854c-7.141,2.106-14.439,3.437-21.786,3.994v-4.853
					C387.478,407.854,394.776,406.522,401.917,404.416z"/>
			</g>
			<g>
				<path style="fill:#FFC45F;" d="M342.223,332.431c7.141,2.106,14.439,3.437,21.786,3.994v4.853
					c-7.347-0.557-14.645-1.888-21.786-3.994V332.431z"/>
				<path style="fill:#FFC45F;" d="M401.917,332.431v4.853c-7.141,2.106-14.439,3.437-21.786,3.994v-4.853
					C387.478,335.868,394.776,334.537,401.917,332.431z"/>
			</g>
			<g>
				<path style="fill:#FFC45F;" d="M342.223,202.27c7.141,2.106,14.439,3.437,21.786,3.994v4.854
					c-7.347-0.557-14.645-1.888-21.786-3.994V202.27z"/>
				<path style="fill:#FFC45F;" d="M401.917,202.27v4.854c-7.141,2.106-14.439,3.437-21.786,3.994v-4.854
					C387.478,205.708,394.776,204.376,401.917,202.27z"/>
			</g>
			<path style="fill:#FFDDA3;" d="M401.917,115.933v3.643c-19.486,5.749-40.207,5.749-59.694,0v-3.643
				C361.71,121.682,382.431,121.682,401.917,115.933z"/>
		</g>
		<g>
			<defs>
				<path id="SVGID_85_" d="M401.917,119.578v302.089c-19.486,5.749-40.207,5.749-59.694,0V119.578
					C361.71,125.327,382.431,125.327,401.917,119.578z"/>
			</defs>
			<clipPath id="SVGID_00000172409936462885576220000016359991101053380777_">
				<use xlink:href="#SVGID_85_"  style="overflow:visible;"/>
			</clipPath>
			
				<linearGradient id="SVGID_00000114047064015443182220000001685279121865542786_" gradientUnits="userSpaceOnUse" x1="238.357" y1="271.8535" x2="246.1339" y2="271.8535" gradientTransform="matrix(1 0 0 1 103.8693 0)">
				<stop  offset="0" style="stop-color:#000B17;stop-opacity:0.5"/>
				<stop  offset="0.9963" style="stop-color:#000000;stop-opacity:0"/>
			</linearGradient>
			
				<rect x="342.226" y="119.695" style="clip-path:url(#SVGID_00000172409936462885576220000016359991101053380777_);fill:url(#SVGID_00000114047064015443182220000001685279121865542786_);" width="7.777" height="304.318"/>
			
				<linearGradient id="SVGID_00000088850646080496341140000017455754594690538657_" gradientUnits="userSpaceOnUse" x1="97.0154" y1="271.8134" x2="104.7923" y2="271.8134" gradientTransform="matrix(-1 0 0 1 498.9324 0)">
				<stop  offset="0" style="stop-color:#000B17;stop-opacity:0.5"/>
				<stop  offset="0.9963" style="stop-color:#000000;stop-opacity:0"/>
			</linearGradient>
			
				<polygon style="clip-path:url(#SVGID_00000172409936462885576220000016359991101053380777_);fill:url(#SVGID_00000088850646080496341140000017455754594690538657_);" points="
				394.14,424.049 401.917,424.049 401.917,119.578 394.14,119.578 			"/>
		</g>
	</g>
	<g>
		<g>
			<path style="fill:#E3544B;" d="M265.906,90.718v246.083v65.453v19.408c24.908,7.36,51.412,7.36,76.32,0v-19.408v-65.453V90.718
				H265.906z"/>
			<path style="fill:#EBEBEB;" d="M342.226,102.825L342.226,102.825c-24.908,7.36-51.412,7.36-76.32,0l0,0V54.674h76.32V102.825z"/>
			<g>
				<defs>
					<path id="SVGID_1_" d="M342.226,102.825L342.226,102.825c-24.908,7.36-51.412,7.36-76.32,0l0,0V54.674h76.32V102.825z"/>
				</defs>
				<clipPath id="SVGID_00000101079269581034008190000001395283322815429008_">
					<use xlink:href="#SVGID_1_"  style="overflow:visible;"/>
				</clipPath>
				<g style="clip-path:url(#SVGID_00000101079269581034008190000001395283322815429008_);">
					
						<line style="fill:none;stroke:#D6D6D6;stroke-width:0.75;stroke-miterlimit:10;" x1="274.252" y1="50.775" x2="274.252" y2="101.663"/>
					
						<line style="fill:none;stroke:#D6D6D6;stroke-width:0.75;stroke-miterlimit:10;" x1="280.209" y1="50.838" x2="280.209" y2="101.726"/>
					
						<line style="fill:none;stroke:#D6D6D6;stroke-width:0.75;stroke-miterlimit:10;" x1="286.166" y1="50.901" x2="286.166" y2="101.789"/>
					
						<line style="fill:none;stroke:#D6D6D6;stroke-width:0.75;stroke-miterlimit:10;" x1="292.122" y1="50.964" x2="292.122" y2="101.853"/>
					
						<line style="fill:none;stroke:#D6D6D6;stroke-width:0.75;stroke-miterlimit:10;" x1="298.079" y1="51.028" x2="298.079" y2="101.916"/>
					
						<line style="fill:none;stroke:#D6D6D6;stroke-width:0.75;stroke-miterlimit:10;" x1="304.036" y1="51.091" x2="304.036" y2="101.979"/>
					
						<line style="fill:none;stroke:#D6D6D6;stroke-width:0.75;stroke-miterlimit:10;" x1="309.993" y1="51.154" x2="309.993" y2="102.043"/>
					
						<line style="fill:none;stroke:#D6D6D6;stroke-width:0.75;stroke-miterlimit:10;" x1="315.95" y1="51.217" x2="315.95" y2="102.106"/>
					
						<line style="fill:none;stroke:#D6D6D6;stroke-width:0.75;stroke-miterlimit:10;" x1="321.906" y1="51.281" x2="321.906" y2="102.169"/>
					
						<line style="fill:none;stroke:#D6D6D6;stroke-width:0.75;stroke-miterlimit:10;" x1="327.863" y1="51.344" x2="327.863" y2="102.232"/>
					
						<line style="fill:none;stroke:#D6D6D6;stroke-width:0.75;stroke-miterlimit:10;" x1="333.82" y1="51.407" x2="333.82" y2="102.295"/>
				</g>
			</g>
			<path style="fill:#D6D6D6;" d="M342.226,96.1v5.212c-24.909,7.359-51.415,7.359-76.312,0V96.1
				C290.811,103.459,317.318,103.459,342.226,96.1z"/>
			<path style="fill:#FF766E;" d="M265.906,53.578v47.884h3.941V53.578c0-1.088-0.882-1.971-1.971-1.971l0,0
				C266.788,51.608,265.906,52.49,265.906,53.578z"/>
			<path style="fill:#FF766E;" d="M338.285,53.578v47.018h3.941V53.578c0-1.088-0.882-1.971-1.971-1.971l0,0
				C339.167,51.608,338.285,52.49,338.285,53.578z"/>
			<g>
				<g>
					<path style="fill:#A63D38;" d="M342.223,119.674v13.762c-24.909,7.359-51.415,7.359-76.312,0v-13.762
						C290.808,127.032,317.314,127.032,342.223,119.674z"/>
					<path style="fill:#A63D38;" d="M342.223,139.382v13.762c-24.909,7.359-51.415,7.359-76.312,0v-13.762
						C290.808,146.741,317.314,146.741,342.223,139.382z"/>
				</g>
			</g>
			<g>
				<g>
					<path style="fill:#A63D38;" d="M342.223,372.403v13.762c-24.909,7.359-51.415,7.359-76.312,0v-13.762
						C290.808,379.762,317.314,379.762,342.223,372.403z"/>
					<path style="fill:#A63D38;" d="M342.223,392.112v13.762c-24.909,7.359-51.415,7.359-76.312,0v-13.762
						C290.808,399.471,317.314,399.471,342.223,392.112z"/>
				</g>
			</g>
			<path style="fill:#A63D38;" d="M342.223,216.019v91.665c-24.909,7.359-51.415,7.359-76.312,0v-91.665
				C290.808,223.378,317.314,223.378,342.223,216.019z"/>
			<path style="fill:#A63D38;" d="M342.223,204.396v6.881c-24.909,7.359-51.415,7.359-76.312,0v-6.881
				C290.808,211.755,317.314,211.755,342.223,204.396z"/>
			<path style="fill:#A63D38;" d="M342.223,313.204v6.881c-24.909,7.359-51.415,7.359-76.312,0v-6.881
				C290.808,320.563,317.314,320.563,342.223,313.204z"/>
			<polygon style="fill:#D75249;" points="271.538,268.047 304.036,239.538 336.535,268.047 304.036,296.556 			"/>
			<polygon style="fill:#A63D38;" points="288.056,268.047 304.036,254.029 320.017,268.047 304.036,282.066 			"/>
			<polygon style="fill:none;stroke:#A63D38;stroke-linecap:round;stroke-linejoin:round;stroke-miterlimit:10;" points="
				272.06,184.357 304.036,156.307 336.012,184.357 304.036,212.409 			"/>
			<polygon style="fill:#A63D38;" points="283.072,184.358 304.036,165.967 325,184.358 304.036,202.748 			"/>
			<polygon style="fill:#D75249;" points="294.084,184.357 304.036,175.627 313.988,184.357 304.036,193.088 			"/>
			<polygon style="fill:none;stroke:#A63D38;stroke-linecap:round;stroke-linejoin:round;stroke-miterlimit:10;" points="
				272.06,352.049 304.036,323.999 336.012,352.049 304.036,380.101 			"/>
			<polygon style="fill:#A63D38;" points="283.072,352.049 304.036,333.659 325,352.049 304.036,370.44 			"/>
			<polygon style="fill:#D75249;" points="294.084,352.049 304.036,343.319 313.988,352.049 304.036,360.78 			"/>
			<path style="fill:#FF766E;" d="M342.223,98.652v5.212c-24.909,7.359-51.415,7.359-76.312,0v-5.212
				C290.808,106.011,317.314,106.011,342.223,98.652z"/>
		</g>
		<g>
			<defs>
				<path id="SVGID_90_" d="M342.223,103.868v317.799c-24.909,7.359-51.415,7.359-76.312,0V103.868
					C290.808,111.226,317.314,111.226,342.223,103.868z"/>
			</defs>
			<clipPath id="SVGID_00000023253256133162559420000011827774280380139145_">
				<use xlink:href="#SVGID_90_"  style="overflow:visible;"/>
			</clipPath>
			
				<linearGradient id="SVGID_00000046329605838092628270000015638343865000614036_" gradientUnits="userSpaceOnUse" x1="210.8627" y1="263.9002" x2="224.4774" y2="263.9002" gradientTransform="matrix(1 0 0 1 55.0436 0)">
				<stop  offset="0" style="stop-color:#000B17;stop-opacity:0.5"/>
				<stop  offset="0.9963" style="stop-color:#000000;stop-opacity:0"/>
			</linearGradient>
			
				<rect x="265.906" y="104.018" style="clip-path:url(#SVGID_00000023253256133162559420000011827774280380139145_);fill:url(#SVGID_00000046329605838092628270000015638343865000614036_);" width="13.615" height="319.765"/>
			
				<linearGradient id="SVGID_00000172430787331516168110000005868394947201772160_" gradientUnits="userSpaceOnUse" x1="111.9421" y1="263.9395" x2="123.9891" y2="263.9395" gradientTransform="matrix(-1 0 0 1 454.1652 0)">
				<stop  offset="0" style="stop-color:#000B17;stop-opacity:0.5"/>
				<stop  offset="0.9963" style="stop-color:#000000;stop-opacity:0"/>
			</linearGradient>
			
				<polygon style="clip-path:url(#SVGID_00000023253256133162559420000011827774280380139145_);fill:url(#SVGID_00000172430787331516168110000005868394947201772160_);" points="
				330.176,424.013 342.223,424.013 342.223,103.867 330.176,103.867 			"/>
		</g>
	</g>
	<g>
		<g>
			<path style="fill:#73B2BA;" d="M231.099,111.883v271.109v29.851v8.851c11.36,3.357,23.448,3.357,34.807,0v-8.851v-29.851V111.883
				H231.099z"/>
			<g>
				<defs>
					<path id="SVGID_94_" d="M265.906,117.404L265.906,117.404c-11.36,3.357-23.448,3.357-34.807,0h0v-21.96h34.807V117.404z"/>
				</defs>
				<clipPath id="SVGID_00000071552202409315117070000018092646083212252822_">
					<use xlink:href="#SVGID_94_"  style="overflow:visible;"/>
				</clipPath>
				<path style="clip-path:url(#SVGID_00000071552202409315117070000018092646083212252822_);fill:#EBEBEB;" d="M265.906,117.404
					L265.906,117.404c-11.36,3.357-23.448,3.357-34.807,0h0v-21.96h34.807V117.404z"/>
				<g style="clip-path:url(#SVGID_00000071552202409315117070000018092646083212252822_);">
					
						<line style="fill:none;stroke:#D6D6D6;stroke-width:0.5;stroke-miterlimit:10;" x1="235.417" y1="93.327" x2="235.417" y2="121.909"/>
					
						<line style="fill:none;stroke:#D6D6D6;stroke-width:0.5;stroke-miterlimit:10;" x1="238.689" y1="93.371" x2="238.689" y2="121.954"/>
					
						<line style="fill:none;stroke:#D6D6D6;stroke-width:0.5;stroke-miterlimit:10;" x1="241.96" y1="93.416" x2="241.96" y2="121.998"/>
					
						<line style="fill:none;stroke:#D6D6D6;stroke-width:0.5;stroke-miterlimit:10;" x1="245.231" y1="93.46" x2="245.231" y2="122.043"/>
					
						<line style="fill:none;stroke:#D6D6D6;stroke-width:0.5;stroke-miterlimit:10;" x1="248.503" y1="93.505" x2="248.503" y2="122.087"/>
					
						<line style="fill:none;stroke:#D6D6D6;stroke-width:0.5;stroke-miterlimit:10;" x1="251.774" y1="93.549" x2="251.774" y2="122.131"/>
					
						<line style="fill:none;stroke:#D6D6D6;stroke-width:0.5;stroke-miterlimit:10;" x1="255.045" y1="93.593" x2="255.045" y2="122.176"/>
					
						<line style="fill:none;stroke:#D6D6D6;stroke-width:0.5;stroke-miterlimit:10;" x1="258.317" y1="93.638" x2="258.317" y2="122.22"/>
					
						<line style="fill:none;stroke:#D6D6D6;stroke-width:0.5;stroke-miterlimit:10;" x1="261.588" y1="93.682" x2="261.588" y2="122.265"/>
				</g>
			</g>
			<path style="fill:#D6D6D6;" d="M265.911,116.151v2.912c-11.365,3.353-23.456,3.353-34.809,0v-2.912
				C242.455,119.516,254.546,119.516,265.911,116.151z"/>
			<path style="fill:#86CFD9;" d="M231.099,94.324v25.35h2.229v-25.35c0-0.55-0.499-0.997-1.115-0.997l0,0
				C231.598,93.327,231.099,93.773,231.099,94.324z"/>
			<path style="fill:#86CFD9;" d="M263.677,94.324v25.35h2.229v-25.35c0-0.55-0.499-0.997-1.115-0.997l0,0
				C264.176,93.327,263.677,93.773,263.677,94.324z"/>
			<path style="fill:#52959E;" d="M265.911,122.831v4.865c-11.365,3.353-23.456,3.353-34.809,0v-4.865
				C242.455,126.195,254.546,126.195,265.911,122.831z"/>
			<path style="fill:#86CFD9;" d="M265.911,117.404v2.912c-11.365,3.353-23.456,3.353-34.809,0v-2.912
				C242.455,120.769,254.546,120.769,265.911,117.404z"/>
			<path style="fill:#52959E;" d="M265.911,199.058v4.865c-11.365,3.353-23.456,3.353-34.809,0v-4.865
				C242.455,202.423,254.546,202.423,265.911,199.058z"/>
			<path style="fill:#52959E;" d="M262.265,141.308v47.077c-2.445,0.459-4.189,2.596-4.219,5.084
				c-6.299,1.26-12.785,1.261-19.079,0.001c-0.03-2.487-1.773-4.625-4.218-5.083v-47.077c3.114,0.451,5.964-1.964,5.904-5.111
				c5.199,0.854,10.506,0.854,15.708-0.001C256.301,139.343,259.15,141.759,262.265,141.308z"/>
			<path style="fill:none;stroke:#73B2BA;stroke-width:0.75;stroke-miterlimit:10;" d="M248.503,190.783
				c-2.175,0-4.356-0.159-6.51-0.474c-0.702-1.804-1.976-3.336-3.615-4.346v-41.457c1.283-0.444,2.463-1.181,3.425-2.161
				c0.628-0.64,1.145-1.359,1.541-2.132c1.714,0.17,3.439,0.257,5.158,0.257c1.72,0,3.448-0.086,5.166-0.257
				c0.396,0.773,0.913,1.491,1.541,2.131c0.962,0.98,2.142,1.717,3.424,2.161v41.457c-1.638,1.011-2.912,2.543-3.614,4.347
				C252.862,190.624,250.679,190.783,248.503,190.783z"/>
			<path style="fill:#52959E;" d="M265.911,333.199v4.865c-11.365,3.353-23.456,3.353-34.809,0v-4.865
				C242.455,336.564,254.546,336.564,265.911,333.199z"/>
			<path style="fill:#52959E;" d="M265.911,409.426v4.866c-11.365,3.353-23.456,3.353-34.809,0v-4.866
				C242.455,412.791,254.546,412.791,265.911,409.426z"/>
			<path style="fill:#52959E;" d="M262.265,351.676v47.077c-2.445,0.459-4.189,2.596-4.219,5.084
				c-6.299,1.26-12.785,1.261-19.079,0.001c-0.03-2.488-1.773-4.625-4.218-5.084v-47.077c3.114,0.451,5.964-1.964,5.904-5.111
				c5.199,0.854,10.506,0.854,15.708-0.001C256.301,349.712,259.15,352.127,262.265,351.676z"/>
			<path style="fill:none;stroke:#73B2BA;stroke-width:0.75;stroke-miterlimit:10;" d="M248.505,401.152
				c-2.175,0-4.357-0.16-6.512-0.475c-0.702-1.802-1.976-3.334-3.614-4.345v-41.458c1.283-0.444,2.463-1.181,3.424-2.161
				c0.629-0.641,1.145-1.359,1.542-2.132c1.716,0.17,3.442,0.257,5.161,0.257c1.719,0,3.446-0.086,5.163-0.257
				c0.396,0.773,0.913,1.49,1.541,2.13c0.962,0.981,2.142,1.717,3.424,2.162v41.458c-1.638,1.011-2.912,2.542-3.614,4.346
				C252.862,400.992,250.68,401.151,248.505,401.152z"/>
			<path style="fill:#52959E;" d="M265.911,226.244v4.866c-11.365,3.353-23.456,3.353-34.809,0v-4.866
				C242.455,229.609,254.546,229.609,265.911,226.244z"/>
			<path style="fill:#52959E;" d="M265.907,208.918v13.242c-11.365,3.353-23.456,3.353-34.809,0v-13.242
				C242.451,212.283,254.542,212.283,265.907,208.918z"/>
			<path style="fill:#52959E;" d="M265.907,313.89v13.242c-11.365,3.353-23.456,3.353-34.809,0V313.89
				C242.451,317.255,254.542,317.255,265.907,313.89z"/>
			<path style="fill:#52959E;" d="M265.911,302.471v4.866c-11.365,3.353-23.456,3.353-34.809,0v-4.866
				C242.455,305.836,254.546,305.836,265.911,302.471z"/>
			<path style="fill:#52959E;" d="M262.265,244.721v47.077c-2.445,0.459-4.189,2.596-4.219,5.084
				c-6.299,1.26-12.785,1.261-19.079,0.001c-0.03-2.488-1.773-4.625-4.218-5.083v-47.077c3.114,0.451,5.964-1.964,5.904-5.11
				c5.199,0.854,10.506,0.854,15.708-0.001C256.301,242.757,259.15,245.172,262.265,244.721z"/>
			<path style="fill:none;stroke:#73B2BA;stroke-width:0.75;stroke-miterlimit:10;" d="M248.5,294.196
				c-2.174,0-4.353-0.158-6.506-0.474c-0.702-1.804-1.976-3.335-3.615-4.346v-41.458c1.283-0.444,2.463-1.181,3.425-2.161
				c0.628-0.641,1.145-1.358,1.541-2.132c1.715,0.171,3.44,0.257,5.158,0.257c1.72,0,3.448-0.086,5.166-0.257
				c0.396,0.773,0.913,1.491,1.541,2.131c0.962,0.98,2.142,1.716,3.424,2.162v41.456c-1.638,1.011-2.912,2.543-3.614,4.346
				C252.861,294.037,250.677,294.196,248.5,294.196z"/>
		</g>
		<g>
			<defs>
				<path id="SVGID_96_" d="M265.911,120.316V421.69c-11.365,3.365-23.456,3.365-34.809,0V120.316
					C242.455,123.669,254.546,123.669,265.911,120.316z"/>
			</defs>
			<clipPath id="SVGID_00000121276639106317911510000006153832532730771120_">
				<use xlink:href="#SVGID_96_"  style="overflow:visible;"/>
			</clipPath>
			
				<linearGradient id="SVGID_00000113311669874247888930000013462783747382233754_" gradientUnits="userSpaceOnUse" x1="231.099" y1="272.286" x2="238.876" y2="272.286">
				<stop  offset="0" style="stop-color:#000B17;stop-opacity:0.5"/>
				<stop  offset="0.9963" style="stop-color:#000000;stop-opacity:0"/>
			</linearGradient>
			
				<rect x="231.099" y="120.36" style="clip-path:url(#SVGID_00000121276639106317911510000006153832532730771120_);fill:url(#SVGID_00000113311669874247888930000013462783747382233754_);" width="7.777" height="303.852"/>
			
				<linearGradient id="SVGID_00000108280334805817441020000004023916040326356666_" gradientUnits="userSpaceOnUse" x1="118.0123" y1="272.0985" x2="125.7892" y2="272.0985" gradientTransform="matrix(-1 0 0 1 383.9086 0)">
				<stop  offset="0" style="stop-color:#000B17;stop-opacity:0.5"/>
				<stop  offset="0.9963" style="stop-color:#000000;stop-opacity:0"/>
			</linearGradient>
			
				<polygon style="clip-path:url(#SVGID_00000121276639106317911510000006153832532730771120_);fill:url(#SVGID_00000108280334805817441020000004023916040326356666_);" points="
				258.119,423.783 265.896,423.783 265.896,120.414 258.119,120.414 			"/>
		</g>
	</g>
	<g>
		<g>
			<path style="fill:#264360;" d="M169.095,103.162v249.586v53.176v15.767c20.236,5.98,41.769,5.98,62.005,0v-15.767v-53.176
				V103.162H169.095z"/>
			<g>
				<defs>
					<path id="SVGID_100_" d="M231.099,112.998L231.099,112.998c-20.236,5.98-41.769,5.98-62.005,0h0V73.878h62.005V112.998z"/>
				</defs>
				<clipPath id="SVGID_00000044136254725280588300000007270343332267156133_">
					<use xlink:href="#SVGID_100_"  style="overflow:visible;"/>
				</clipPath>
				<path style="clip-path:url(#SVGID_00000044136254725280588300000007270343332267156133_);fill:#EBEBEB;" d="M231.099,112.998
					L231.099,112.998c-20.236,5.98-41.769,5.98-62.005,0h0V73.878h62.005V112.998z"/>
				<g style="clip-path:url(#SVGID_00000044136254725280588300000007270343332267156133_);">
					
						<line style="fill:none;stroke:#D6D6D6;stroke-width:0.75;stroke-miterlimit:10;" x1="176.757" y1="72.034" x2="176.757" y2="120.272"/>
					
						<line style="fill:none;stroke:#D6D6D6;stroke-width:0.75;stroke-miterlimit:10;" x1="182.049" y1="72.1" x2="182.049" y2="120.338"/>
					
						<line style="fill:none;stroke:#D6D6D6;stroke-width:0.75;stroke-miterlimit:10;" x1="187.341" y1="72.167" x2="187.341" y2="120.405"/>
					
						<line style="fill:none;stroke:#D6D6D6;stroke-width:0.75;stroke-miterlimit:10;" x1="192.633" y1="72.234" x2="192.633" y2="120.471"/>
					
						<line style="fill:none;stroke:#D6D6D6;stroke-width:0.75;stroke-miterlimit:10;" x1="197.925" y1="72.3" x2="197.925" y2="120.538"/>
					
						<line style="fill:none;stroke:#D6D6D6;stroke-width:0.75;stroke-miterlimit:10;" x1="203.217" y1="72.367" x2="203.217" y2="120.605"/>
					
						<line style="fill:none;stroke:#D6D6D6;stroke-width:0.75;stroke-miterlimit:10;" x1="208.509" y1="72.433" x2="208.509" y2="120.671"/>
					
						<line style="fill:none;stroke:#D6D6D6;stroke-width:0.75;stroke-miterlimit:10;" x1="213.801" y1="72.5" x2="213.801" y2="120.738"/>
					
						<line style="fill:none;stroke:#D6D6D6;stroke-width:0.75;stroke-miterlimit:10;" x1="219.093" y1="72.567" x2="219.093" y2="120.804"/>
					
						<line style="fill:none;stroke:#D6D6D6;stroke-width:0.75;stroke-miterlimit:10;" x1="224.385" y1="72.633" x2="224.385" y2="120.871"/>
				</g>
			</g>
			<path style="fill:#D6D6D6;" d="M231.104,111.544v4.844c-20.237,5.979-41.769,5.979-62.006,0v-4.844
				C189.335,117.523,210.867,117.523,231.104,111.544z"/>
			<path style="fill:#508CC9;" d="M169.095,71.859v43.836l3.991,2.449V71.859c0-0.852-0.893-1.542-1.995-1.542l0,0
				C169.988,70.317,169.095,71.007,169.095,71.859z"/>
			<path style="fill:#508CC9;" d="M227.113,71.859v46.285l3.991-1.325v-44.96c0-0.852-0.893-1.542-1.995-1.542l0,0
				C228.007,70.317,227.113,71.007,227.113,71.859z"/>
			<path style="fill:#1C334D;" d="M169.095,266.891v85.857v53.176v15.767c20.236,5.98,41.769,5.98,62.005,0v-15.767v-53.176v-85.857
				H169.095z"/>
			<path style="fill:#1C334D;" d="M231.104,142.686v33.171c-20.237,5.979-41.769,5.979-62.006,0v-33.171
				C189.335,148.665,210.867,148.665,231.104,142.686z"/>
			<path style="fill:#1C334D;" d="M231.104,200.956v10.36c-20.237,5.979-41.769,5.979-62.006,0v-10.36
				C189.335,206.935,210.867,206.935,231.104,200.956z"/>
			<path style="fill:#264360;" d="M231.104,322.281v10.36c-20.237,5.979-41.769,5.979-62.006,0v-10.36
				C189.335,328.26,210.867,328.26,231.104,322.281z"/>
			<path style="fill:#264360;" d="M231.104,356.903v33.171c-20.237,5.979-41.769,5.979-62.006,0v-33.171
				C189.335,362.882,210.867,362.882,231.104,356.903z"/>
			<path style="fill:#264360;" d="M231.104,235.258v33.171c-20.237,5.979-41.769,5.979-62.006,0v-33.171
				C189.335,241.238,210.867,241.238,231.104,235.258z"/>
			<g>
				<path style="fill:#1C334D;" d="M203.418,191.8c0,1.832-1.485,3.317-3.317,3.317c-1.832,0-3.317-1.485-3.317-3.317
					c0-1.832,1.485-3.317,3.317-3.317C201.933,188.483,203.418,189.968,203.418,191.8z"/>
				<circle style="fill:#1C334D;" cx="211.774" cy="191.171" r="3.317"/>
				<path style="fill:#1C334D;" d="M227.039,189.413c0,1.832-1.485,3.317-3.317,3.317s-3.317-1.485-3.317-3.317
					c0-1.832,1.485-3.317,3.317-3.317S227.039,187.581,227.039,189.413z"/>
				<circle style="fill:#1C334D;" cx="188.419" cy="191.171" r="3.317"/>
				<path style="fill:#1C334D;" d="M173.154,189.413c0,1.832,1.485,3.317,3.317,3.317s3.317-1.485,3.317-3.317
					c0-1.832-1.485-3.317-3.317-3.317S173.154,187.581,173.154,189.413z"/>
			</g>
			<g>
				<path style="fill:#1C334D;" d="M203.418,137.286c0,1.832-1.485,3.317-3.317,3.317c-1.832,0-3.317-1.485-3.317-3.317
					c0-1.832,1.485-3.317,3.317-3.317C201.933,133.969,203.418,135.454,203.418,137.286z"/>
				<circle style="fill:#1C334D;" cx="211.774" cy="136.658" r="3.317"/>
				<path style="fill:#1C334D;" d="M227.039,134.9c0,1.832-1.485,3.317-3.317,3.317s-3.317-1.485-3.317-3.317
					c0-1.832,1.485-3.317,3.317-3.317S227.039,133.068,227.039,134.9z"/>
				<circle style="fill:#1C334D;" cx="188.419" cy="136.658" r="3.317"/>
				<path style="fill:#1C334D;" d="M173.154,134.9c0,1.832,1.485,3.317,3.317,3.317s3.317-1.485,3.317-3.317
					c0-1.832-1.485-3.317-3.317-3.317S173.154,133.068,173.154,134.9z"/>
			</g>
			<g>
				<path style="fill:#264360;" d="M203.418,349.873c0,1.832-1.485,3.317-3.317,3.317c-1.832,0-3.317-1.485-3.317-3.317
					c0-1.832,1.485-3.317,3.317-3.317C201.933,346.556,203.418,348.041,203.418,349.873z"/>
				<path style="fill:#264360;" d="M215.092,349.244c0,1.832-1.485,3.317-3.317,3.317s-3.317-1.485-3.317-3.317
					c0-1.832,1.485-3.317,3.317-3.317S215.092,347.413,215.092,349.244z"/>
				<circle style="fill:#264360;" cx="223.722" cy="347.486" r="3.317"/>
				<path style="fill:#264360;" d="M185.102,349.244c0,1.832,1.485,3.317,3.317,3.317c1.832,0,3.317-1.485,3.317-3.317
					c0-1.832-1.485-3.317-3.317-3.317C186.587,345.927,185.102,347.413,185.102,349.244z"/>
				<circle style="fill:#264360;" cx="176.471" cy="347.486" r="3.317"/>
			</g>
			<g>
				<path style="fill:#264360;" d="M203.418,408.078c0,1.832-1.485,3.317-3.317,3.317c-1.832,0-3.317-1.485-3.317-3.317
					c0-1.832,1.485-3.317,3.317-3.317C201.933,404.761,203.418,406.246,203.418,408.078z"/>
				<circle style="fill:#264360;" cx="211.774" cy="407.449" r="3.317"/>
				<path style="fill:#264360;" d="M227.039,405.691c0,1.832-1.485,3.317-3.317,3.317s-3.317-1.485-3.317-3.317
					c0-1.832,1.485-3.317,3.317-3.317S227.039,403.859,227.039,405.691z"/>
				<circle style="fill:#264360;" cx="188.419" cy="407.449" r="3.317"/>
				<path style="fill:#264360;" d="M173.154,405.691c0,1.832,1.485,3.317,3.317,3.317s3.317-1.485,3.317-3.317
					c0-1.832-1.485-3.317-3.317-3.317S173.154,403.859,173.154,405.691z"/>
			</g>
			<path style="fill:#1C334D;" d="M231.104,369.253v8.471c-20.237,5.979-41.769,5.979-62.006,0v-8.471
				C189.335,375.232,210.867,375.232,231.104,369.253z"/>
			<path style="fill:#264360;" d="M231.104,155.036v8.471c-20.237,5.979-41.769,5.979-62.006,0v-8.471
				C189.335,161.015,210.867,161.015,231.104,155.036z"/>
			<path style="fill:#508CC9;" d="M231.104,112.993v4.844c-20.237,5.979-41.769,5.979-62.006,0v-4.844
				C189.335,118.972,210.867,118.972,231.104,112.993z"/>
			<path style="fill:none;stroke:#264360;stroke-width:2;stroke-linecap:round;stroke-linejoin:round;stroke-miterlimit:10;" d="
				M225.011,269.811v37.463c-16.26,4.804-33.56,4.804-49.82,0v-37.71"/>
			<path style="fill:none;stroke:#1C334D;stroke-width:2;stroke-linecap:round;stroke-linejoin:round;stroke-miterlimit:10;" d="
				M175.192,269.564v-43.247c16.26,4.804,33.56,4.804,49.82,0v43.494"/>
		</g>
		<g>
			<defs>
				<path id="SVGID_102_" d="M231.102,117.835V421.69c-20.237,5.979-41.769,5.979-62.006,0V117.835
					C189.333,123.814,210.865,123.814,231.102,117.835z"/>
			</defs>
			<clipPath id="SVGID_00000123425347922383799980000017879576436756123071_">
				<use xlink:href="#SVGID_102_"  style="overflow:visible;"/>
			</clipPath>
			
				<linearGradient id="SVGID_00000060026543124429084460000002652474412671348158_" gradientUnits="userSpaceOnUse" x1="103.9431" y1="271.0362" x2="111.72" y2="271.0362" gradientTransform="matrix(-1 0 0 1 335.0421 0)">
				<stop  offset="0" style="stop-color:#000B17;stop-opacity:0.5"/>
				<stop  offset="0.9963" style="stop-color:#000000;stop-opacity:0"/>
			</linearGradient>
			
				<polygon style="clip-path:url(#SVGID_00000123425347922383799980000017879576436756123071_);fill:url(#SVGID_00000060026543124429084460000002652474412671348158_);" points="
				223.322,424.212 231.099,424.212 231.099,117.86 223.322,117.86 			"/>
			
				<linearGradient id="SVGID_00000011746336145890208490000016051276552803185552_" gradientUnits="userSpaceOnUse" x1="224.3486" y1="271.2393" x2="232.1255" y2="271.2393" gradientTransform="matrix(1 0 0 1 -55.2511 0)">
				<stop  offset="0" style="stop-color:#000B17;stop-opacity:0.5"/>
				<stop  offset="0.9963" style="stop-color:#000000;stop-opacity:0"/>
			</linearGradient>
			
				<rect x="169.097" y="117.86" style="clip-path:url(#SVGID_00000123425347922383799980000017879576436756123071_);fill:url(#SVGID_00000011746336145890208490000016051276552803185552_);" width="7.777" height="306.758"/>
		</g>
	</g>
	<g>
		<g>
			<path style="fill:#FFC45F;" d="M128.929,136.38v240.541v34.542v10.242c13.145,3.884,27.132,3.884,40.277,0v-10.242v-34.542
				V136.38H128.929z"/>
			<g>
				<defs>
					<path id="SVGID_106_" d="M169.206,142.769L169.206,142.769c-13.145,3.884-27.132,3.884-40.277,0l0,0v-25.411h40.277V142.769z"
						/>
				</defs>
				<clipPath id="SVGID_00000033329017229228204440000000890187418086745260_">
					<use xlink:href="#SVGID_106_"  style="overflow:visible;"/>
				</clipPath>
				<path style="clip-path:url(#SVGID_00000033329017229228204440000000890187418086745260_);fill:#EBEBEB;" d="M169.206,142.769
					L169.206,142.769c-13.145,3.884-27.132,3.884-40.277,0l0,0v-25.411h40.277V142.769z"/>
				<g style="clip-path:url(#SVGID_00000033329017229228204440000000890187418086745260_);">
					
						<line style="fill:none;stroke:#D6D6D6;stroke-width:0.5;stroke-miterlimit:10;" x1="134.316" y1="115.23" x2="134.316" y2="148.32"/>
					
						<line style="fill:none;stroke:#D6D6D6;stroke-width:0.5;stroke-miterlimit:10;" x1="138.004" y1="115.282" x2="138.004" y2="148.371"/>
					
						<line style="fill:none;stroke:#D6D6D6;stroke-width:0.5;stroke-miterlimit:10;" x1="141.693" y1="115.333" x2="141.693" y2="148.423"/>
					
						<line style="fill:none;stroke:#D6D6D6;stroke-width:0.5;stroke-miterlimit:10;" x1="145.381" y1="115.384" x2="145.381" y2="148.474"/>
					
						<line style="fill:none;stroke:#D6D6D6;stroke-width:0.5;stroke-miterlimit:10;" x1="149.07" y1="115.436" x2="149.07" y2="148.526"/>
					
						<line style="fill:none;stroke:#D6D6D6;stroke-width:0.5;stroke-miterlimit:10;" x1="152.758" y1="115.487" x2="152.758" y2="148.577"/>
					
						<line style="fill:none;stroke:#D6D6D6;stroke-width:0.5;stroke-miterlimit:10;" x1="156.447" y1="115.539" x2="156.447" y2="148.628"/>
					
						<line style="fill:none;stroke:#D6D6D6;stroke-width:0.5;stroke-miterlimit:10;" x1="160.135" y1="115.59" x2="160.135" y2="148.68"/>
					
						<line style="fill:none;stroke:#D6D6D6;stroke-width:0.5;stroke-miterlimit:10;" x1="163.824" y1="115.641" x2="163.824" y2="148.731"/>
				</g>
			</g>
			<path style="fill:#D6D6D6;" d="M169.21,141.446v3.092c-13.144,3.885-27.136,3.885-40.28,0v-3.092
				C142.074,145.331,156.065,145.331,169.21,141.446z"/>
			<path style="fill:#FFDDA3;" d="M128.929,116.466v29.216h2.792v-29.216c0-0.683-0.625-1.236-1.396-1.236l0,0
				C129.554,115.23,128.929,115.784,128.929,116.466z"/>
			<path style="fill:#FFDDA3;" d="M166.414,116.466v29.216h2.792v-29.216c0-0.683-0.625-1.236-1.396-1.236l0,0
				C167.039,115.23,166.414,115.784,166.414,116.466z"/>
			<path style="fill:#DB9952;" d="M169.21,151.458v8.472c-13.144,3.885-27.136,3.885-40.28,0v-8.472
				C142.074,155.343,156.065,155.343,169.21,151.458z"/>
			<path style="fill:#DB9952;" d="M169.21,405.016v8.472c-13.144,3.885-27.136,3.885-40.28,0v-8.472
				C142.074,408.901,156.065,408.901,169.21,405.016z"/>
			<path style="fill:#DB9952;" d="M169.21,167.321v37.436c-3.716-7.359-11.341-12.394-20.14-12.394
				c-8.811,0-16.424,5.035-20.14,12.394v-37.436C142.074,171.206,156.065,171.206,169.21,167.321z"/>
			<path style="fill:none;stroke:#FFC45F;stroke-miterlimit:10;" d="M165.579,194.564c-4.573-3.718-10.353-5.833-16.509-5.833
				c-6.156,0-11.936,2.115-16.509,5.833v-22.546c5.412,1.227,10.946,1.848,16.509,1.848c5.564,0,11.098-0.621,16.509-1.848V194.564z
				"/>
			<path style="fill:#DB9952;" d="M169.21,360.75v36.613c-13.144,3.885-27.136,3.885-40.28,0V360.75
				c3.68,7.395,11.317,12.478,20.14,12.478C157.893,373.228,165.53,368.145,169.21,360.75z"/>
			<path style="fill:none;stroke:#FFC45F;stroke-miterlimit:10;" d="M149.069,396.645c-5.574,0-11.114-0.689-16.509-2.052v-23.581
				c4.565,3.729,10.342,5.848,16.509,5.848c6.166,0,11.944-2.12,16.509-5.848v23.581
				C160.184,395.956,154.644,396.645,149.069,396.645z"/>
			<path style="fill:#DB9952;" d="M149.067,363.562L149.067,363.562c-7.909,0-14.32-6.411-14.32-14.32V215.521
				c0-7.909,6.411-14.32,14.32-14.32l0,0c7.909,0,14.32,6.411,14.32,14.32v133.721C163.387,357.151,156.976,363.562,149.067,363.562
				z"/>
			<path style="fill:none;stroke:#FFC45F;stroke-miterlimit:10;" d="M149.067,359.931c-5.894,0-10.689-4.795-10.689-10.689V215.521
				c0-5.894,4.795-10.689,10.689-10.689c5.894,0,10.689,4.795,10.689,10.689v133.721
				C159.756,355.135,154.961,359.931,149.067,359.931z"/>
			<path style="fill:#FFDDA3;" d="M169.21,142.769v3.092c-13.144,3.885-27.136,3.885-40.28,0v-3.092
				C142.074,146.654,156.065,146.654,169.21,142.769z"/>
		</g>
		<g>
			<defs>
				<path id="SVGID_108_" d="M169.205,145.866v275.836c-13.144,3.885-27.136,3.885-40.28,0V145.866
					C142.069,149.751,156.061,149.751,169.205,145.866z"/>
			</defs>
			<clipPath id="SVGID_00000106121222686567031830000007786452831185506694_">
				<use xlink:href="#SVGID_108_"  style="overflow:visible;"/>
			</clipPath>
			
				<linearGradient id="SVGID_00000069387084803510296920000003863257593465315742_" gradientUnits="userSpaceOnUse" x1="116.2992" y1="285.1952" x2="124.0761" y2="285.1952" gradientTransform="matrix(-1 0 0 1 285.3931 0)">
				<stop  offset="0" style="stop-color:#000B17;stop-opacity:0.5"/>
				<stop  offset="0.9963" style="stop-color:#000000;stop-opacity:0"/>
			</linearGradient>
			
				<polygon style="clip-path:url(#SVGID_00000106121222686567031830000007786452831185506694_);fill:url(#SVGID_00000069387084803510296920000003863257593465315742_);" points="
				161.317,424.618 169.094,424.618 169.094,145.772 161.317,145.772 			"/>
			
				<linearGradient id="SVGID_00000175290014293415874420000017899806677956447640_" gradientUnits="userSpaceOnUse" x1="208.5892" y1="285.1952" x2="216.3661" y2="285.1952" gradientTransform="matrix(1 0 0 1 -79.6596 0)">
				<stop  offset="0" style="stop-color:#000B17;stop-opacity:0.5"/>
				<stop  offset="0.9963" style="stop-color:#000000;stop-opacity:0"/>
			</linearGradient>
			
				<rect x="128.93" y="145.772" style="clip-path:url(#SVGID_00000106121222686567031830000007786452831185506694_);fill:url(#SVGID_00000175290014293415874420000017899806677956447640_);" width="7.777" height="278.846"/>
		</g>
	</g>
	<g>
		<g>
			<path style="fill:#FF8787;" d="M79.709,168.84v198.125v42.212v12.516c16.063,4.747,33.157,4.747,49.22,0v-12.516v-42.212V168.84
				H79.709z"/>
			<g>
				<defs>
					<path id="SVGID_112_" d="M128.929,176.648L128.929,176.648c-16.063,4.747-33.157,4.747-49.22,0h0v-31.054h49.22V176.648z"/>
				</defs>
				<clipPath id="SVGID_00000131339070915081079640000006847329993258438323_">
					<use xlink:href="#SVGID_112_"  style="overflow:visible;"/>
				</clipPath>
				<path style="clip-path:url(#SVGID_00000131339070915081079640000006847329993258438323_);fill:#EBEBEB;" d="M128.929,176.648
					L128.929,176.648c-16.063,4.747-33.157,4.747-49.22,0h0v-31.054h49.22V176.648z"/>
				<g style="clip-path:url(#SVGID_00000131339070915081079640000006847329993258438323_);">
					
						<line style="fill:none;stroke:#D6D6D6;stroke-width:0.5;stroke-miterlimit:10;" x1="86.497" y1="142.903" x2="86.497" y2="183.225"/>
					
						<line style="fill:none;stroke:#D6D6D6;stroke-width:0.5;stroke-miterlimit:10;" x1="90.549" y1="142.958" x2="90.549" y2="183.28"/>
					
						<line style="fill:none;stroke:#D6D6D6;stroke-width:0.5;stroke-miterlimit:10;" x1="94.602" y1="143.014" x2="94.602" y2="183.336"/>
					
						<line style="fill:none;stroke:#D6D6D6;stroke-width:0.5;stroke-miterlimit:10;" x1="98.654" y1="143.07" x2="98.654" y2="183.391"/>
					
						<line style="fill:none;stroke:#D6D6D6;stroke-width:0.5;stroke-miterlimit:10;" x1="102.706" y1="143.125" x2="102.706" y2="183.447"/>
					
						<line style="fill:none;stroke:#D6D6D6;stroke-width:0.5;stroke-miterlimit:10;" x1="106.759" y1="143.181" x2="106.759" y2="183.503"/>
					
						<line style="fill:none;stroke:#D6D6D6;stroke-width:0.5;stroke-miterlimit:10;" x1="110.811" y1="143.237" x2="110.811" y2="183.559"/>
					
						<line style="fill:none;stroke:#D6D6D6;stroke-width:0.5;stroke-miterlimit:10;" x1="114.863" y1="143.292" x2="114.863" y2="183.614"/>
					
						<line style="fill:none;stroke:#D6D6D6;stroke-width:0.5;stroke-miterlimit:10;" x1="118.916" y1="143.348" x2="118.916" y2="183.67"/>
					
						<line style="fill:none;stroke:#D6D6D6;stroke-width:0.5;stroke-miterlimit:10;" x1="122.968" y1="143.404" x2="122.968" y2="183.726"/>
				</g>
			</g>
			<path style="fill:#D6D6D6;" d="M128.925,175.22v3.643c-16.061,4.745-33.151,4.745-49.212,0v-3.643
				C95.774,179.964,112.864,179.964,128.925,175.22z"/>
			<path style="fill:#FFB5B5;" d="M79.709,144.189v35.493h3.226v-35.493c0-0.784-0.722-1.42-1.613-1.42l0,0
				C80.431,142.769,79.709,143.405,79.709,144.189z"/>
			<path style="fill:#FFB5B5;" d="M125.703,144.189v35.493h3.226v-35.493c0-0.784-0.722-1.42-1.613-1.42l0,0
				C126.425,142.769,125.703,143.405,125.703,144.189z"/>
			<path style="fill:#FFB5B5;" d="M128.925,176.607v3.643c-16.061,4.745-33.151,4.745-49.212,0v-3.643
				C95.774,181.352,112.864,181.352,128.925,176.607z"/>
			<path style="fill:#E67070;" d="M128.925,189.987v14.583c-16.061,4.745-33.151,4.745-49.212,0v-14.583
				C95.774,194.732,112.864,194.732,128.925,189.987z"/>
			<path style="fill:#E67070;" d="M128.925,210.656v179.249c-16.061,4.745-33.151,4.745-49.212,0V210.656
				C95.774,215.4,112.864,215.4,128.925,210.656z"/>
			<path style="fill:#E67070;" d="M128.925,396.563v14.583c-16.061,4.745-33.151,4.745-49.212,0v-14.583
				C95.774,401.308,112.864,401.308,128.925,396.563z"/>
			<path style="fill:#FF8787;" d="M123.61,219.976v162.458c-12.592,3.72-25.991,3.72-38.582,0V219.976
				C97.62,223.695,111.018,223.695,123.61,219.976z"/>
			<path style="fill:#E67070;" d="M123.612,235.202v10.603c-12.587,3.728-25.998,3.728-38.586,0v-10.603
				C97.614,238.917,111.024,238.917,123.612,235.202z"/>
			<path style="fill:#E67070;" d="M123.612,356.862v10.603c-12.587,3.728-25.998,3.728-38.586,0v-10.603
				C97.614,360.578,111.024,360.578,123.612,356.862z"/>
			<polygon style="fill:none;stroke:#E67070;stroke-miterlimit:10;" points="80.753,304.49 104.319,276.353 127.885,304.49 
				104.319,332.627 			"/>
			<polygon style="fill:#E67070;" points="104.319,325.087 87.068,304.49 104.319,283.893 121.57,304.49 			"/>
			<polygon style="fill:#FF8787;" points="93.383,304.49 104.319,291.433 115.254,304.49 104.319,317.547 			"/>
			<polygon style="fill:none;stroke:#E67070;stroke-miterlimit:10;" points="87.044,340.922 104.319,320.298 121.594,340.922 
				104.319,361.547 			"/>
			<polygon style="fill:#E67070;" points="104.319,354.007 93.359,340.922 104.319,327.837 115.278,340.922 			"/>
			<polygon style="fill:#FF8787;" points="98.096,340.922 104.319,333.492 110.542,340.922 104.319,348.353 			"/>
			<polygon style="fill:none;stroke:#E67070;stroke-miterlimit:10;" points="87.044,268.058 104.319,247.433 121.594,268.058 
				104.319,288.682 			"/>
			<polygon style="fill:#E67070;" points="104.319,281.143 93.359,268.058 104.319,254.973 115.278,268.058 			"/>
			<polygon style="fill:#FF8787;" points="98.096,268.058 104.319,260.627 110.542,268.058 104.319,275.488 			"/>
		</g>
		<g>
			<defs>
				<path id="SVGID_114_" d="M128.925,180.252V421.69c-16.061,4.745-33.151,4.745-49.212,0V180.252
					C95.774,184.997,112.864,184.997,128.925,180.252z"/>
			</defs>
			<clipPath id="SVGID_00000085221266406163553450000012981333859306467718_">
				<use xlink:href="#SVGID_114_"  style="overflow:visible;"/>
			</clipPath>
			
				<linearGradient id="SVGID_00000162316155078037974200000016486988701779860109_" gradientUnits="userSpaceOnUse" x1="110.5656" y1="302.4131" x2="118.3425" y2="302.4131" gradientTransform="matrix(-1 0 0 1 239.4952 0)">
				<stop  offset="0" style="stop-color:#000B17;stop-opacity:0.5"/>
				<stop  offset="0.9963" style="stop-color:#000000;stop-opacity:0"/>
			</linearGradient>
			
				<polygon style="clip-path:url(#SVGID_00000085221266406163553450000012981333859306467718_);fill:url(#SVGID_00000162316155078037974200000016486988701779860109_);" points="
				121.153,424.618 128.93,424.618 128.93,180.208 121.153,180.208 			"/>
		</g>
	</g>
</g>
</svg>
